# xmcd
#
# Track frame offsets:
#	150
#	9744
#	26577
#	38112
#	51420
#	63278
#	78990
#	93270
#	104578
#	116926
#	131584
#	145012
#
# Disc length: 2096 seconds
#
# Revision: 0
# Processed by: cddbd v1.5.2PL0 Copyright (c) Steve Scherf et al.
# Submitted via: EasyCDDAExtractor 12.0.4.1
#
DISCID=a2082e0c
DTITLE=Dolly Parton - My Tennessee Mountain Home
DYEAR=1973
DGENRE=Country
TTITLE0=The Letter
TTITLE1=I Remember
TTITLE2=Old Black Kettle
TTITLE3=Daddy's Working Boots
TTITLE4=Dr. Robert F. Thomas
TTITLE5=In The Good Old Days (When Times Were Bad)
TTITLE6=My Tennessee Mountain Home
TTITLE7=The Wrong Direction Home
TTITLE8=Back Home
TTITLE9=The Better Part Of Life
TTITLE10=Down On Music Row
TTITLE11=Sacred Memories (Single B-Side)
EXTD=
EXTT0=
EXTT1=
EXTT2=
EXTT3=
EXTT4=
EXTT5=
EXTT6=
EXTT7=
EXTT8=
EXTT9=
EXTT10=
EXTT11=
PLAYORDER=
